<mxfile host="app.diagrams.net" modified="2023-06-30T14:47:11.149Z" agent="Mozilla/5.0 (Windows NT 10.0; Win64; x64) AppleWebKit/537.36 (KHTML, like Gecko) Chrome/114.0.0.0 Safari/537.36" etag="M3GFenyk5xhphcqYzuDu" version="21.5.2" type="github">
  <diagram id="C5RBs43oDa-KdzZeNtuy" name="Page-1">
    <mxGraphModel dx="733" dy="403" grid="1" gridSize="10" guides="1" tooltips="1" connect="1" arrows="1" fold="1" page="1" pageScale="1" pageWidth="827" pageHeight="1169" math="0" shadow="0">
      <root>
        <mxCell id="WIyWlLk6GJQsqaUBKTNV-0" />
        <mxCell id="WIyWlLk6GJQsqaUBKTNV-1" parent="WIyWlLk6GJQsqaUBKTNV-0" />
        <mxCell id="Riw9BWggHdmtHfvTJYA6-1" style="edgeStyle=orthogonalEdgeStyle;rounded=0;orthogonalLoop=1;jettySize=auto;html=1;fontStyle=1;fontSize=11;" parent="WIyWlLk6GJQsqaUBKTNV-1" edge="1">
          <mxGeometry relative="1" as="geometry">
            <mxPoint x="398" y="305" as="sourcePoint" />
            <mxPoint x="398.0232558139536" y="335.0186046511629" as="targetPoint" />
            <Array as="points">
              <mxPoint x="398" y="295" />
              <mxPoint x="398" y="295" />
            </Array>
          </mxGeometry>
        </mxCell>
        <mxCell id="Riw9BWggHdmtHfvTJYA6-0" value="AVIRIS-NG&amp;nbsp;&lt;br style=&quot;font-size: 11px;&quot;&gt;L2 reflectance data" style="shape=parallelogram;html=1;strokeWidth=2;perimeter=parallelogramPerimeter;whiteSpace=wrap;rounded=1;arcSize=12;size=0.23;fillColor=#fff2cc;strokeColor=#d6b656;fontStyle=1;fontSize=11;" parent="WIyWlLk6GJQsqaUBKTNV-1" vertex="1">
          <mxGeometry x="324" y="234" width="170" height="60" as="geometry" />
        </mxCell>
        <mxCell id="Riw9BWggHdmtHfvTJYA6-6" value="" style="edgeStyle=orthogonalEdgeStyle;rounded=0;orthogonalLoop=1;jettySize=auto;html=1;entryX=0.606;entryY=0.02;entryDx=0;entryDy=0;entryPerimeter=0;fontStyle=1;fontSize=11;" parent="WIyWlLk6GJQsqaUBKTNV-1" source="Riw9BWggHdmtHfvTJYA6-2" target="Riw9BWggHdmtHfvTJYA6-10" edge="1">
          <mxGeometry relative="1" as="geometry">
            <mxPoint x="398" y="475" as="targetPoint" />
          </mxGeometry>
        </mxCell>
        <mxCell id="Riw9BWggHdmtHfvTJYA6-8" value="" style="edgeStyle=orthogonalEdgeStyle;rounded=0;orthogonalLoop=1;jettySize=auto;html=1;fontStyle=1;fontSize=11;" parent="WIyWlLk6GJQsqaUBKTNV-1" source="Riw9BWggHdmtHfvTJYA6-2" edge="1">
          <mxGeometry relative="1" as="geometry">
            <mxPoint x="466" y="465" as="targetPoint" />
          </mxGeometry>
        </mxCell>
        <mxCell id="Riw9BWggHdmtHfvTJYA6-2" value="Noisy bands/absorption bands filtering" style="rounded=1;whiteSpace=wrap;html=1;absoluteArcSize=1;arcSize=14;strokeWidth=2;fillColor=#dae8fc;strokeColor=#6c8ebf;fontStyle=1;fontSize=11;" parent="WIyWlLk6GJQsqaUBKTNV-1" vertex="1">
          <mxGeometry x="328" y="335" width="140" height="70" as="geometry" />
        </mxCell>
        <mxCell id="Riw9BWggHdmtHfvTJYA6-19" style="edgeStyle=orthogonalEdgeStyle;rounded=0;orthogonalLoop=1;jettySize=auto;html=1;entryX=0;entryY=0.5;entryDx=0;entryDy=0;exitX=1;exitY=0.5;exitDx=0;exitDy=0;fontStyle=1;fontSize=11;" parent="WIyWlLk6GJQsqaUBKTNV-1" source="7p6_Zu2bMeGWk3Idg1JW-0" target="Riw9BWggHdmtHfvTJYA6-16" edge="1">
          <mxGeometry relative="1" as="geometry" />
        </mxCell>
        <mxCell id="7p6_Zu2bMeGWk3Idg1JW-1" value="" style="edgeStyle=orthogonalEdgeStyle;rounded=0;orthogonalLoop=1;jettySize=auto;html=1;exitX=0.447;exitY=1;exitDx=0;exitDy=0;exitPerimeter=0;fontStyle=1;fontSize=11;" edge="1" parent="WIyWlLk6GJQsqaUBKTNV-1" source="Riw9BWggHdmtHfvTJYA6-5" target="7p6_Zu2bMeGWk3Idg1JW-0">
          <mxGeometry relative="1" as="geometry" />
        </mxCell>
        <mxCell id="Riw9BWggHdmtHfvTJYA6-5" value="Buxar river Water&amp;nbsp;&lt;br style=&quot;font-size: 11px;&quot;&gt;Spectro Radiometer &lt;br style=&quot;font-size: 11px;&quot;&gt;data" style="shape=parallelogram;html=1;strokeWidth=2;perimeter=parallelogramPerimeter;whiteSpace=wrap;rounded=1;arcSize=12;size=0.23;fillColor=#fff2cc;strokeColor=#d6b656;align=center;fontStyle=1;fontSize=11;" parent="WIyWlLk6GJQsqaUBKTNV-1" vertex="1">
          <mxGeometry x="87" y="440" width="171" height="67" as="geometry" />
        </mxCell>
        <mxCell id="Riw9BWggHdmtHfvTJYA6-18" style="edgeStyle=orthogonalEdgeStyle;rounded=0;orthogonalLoop=1;jettySize=auto;html=1;fontStyle=1;fontSize=11;" parent="WIyWlLk6GJQsqaUBKTNV-1" source="Riw9BWggHdmtHfvTJYA6-9" edge="1">
          <mxGeometry relative="1" as="geometry">
            <mxPoint x="406" y="550" as="targetPoint" />
            <Array as="points">
              <mxPoint x="406" y="495" />
              <mxPoint x="406" y="550" />
            </Array>
          </mxGeometry>
        </mxCell>
        <mxCell id="Riw9BWggHdmtHfvTJYA6-9" value="&amp;nbsp; &amp;nbsp;Water Quality indices" style="shape=parallelogram;html=1;strokeWidth=2;perimeter=parallelogramPerimeter;whiteSpace=wrap;rounded=1;arcSize=12;size=0.23;fillColor=#d5e8d4;strokeColor=#82b366;fontStyle=1;fontSize=11;" parent="WIyWlLk6GJQsqaUBKTNV-1" vertex="1">
          <mxGeometry x="416" y="465" width="110" height="60" as="geometry" />
        </mxCell>
        <mxCell id="Riw9BWggHdmtHfvTJYA6-17" style="edgeStyle=orthogonalEdgeStyle;rounded=0;orthogonalLoop=1;jettySize=auto;html=1;exitX=1;exitY=0.5;exitDx=0;exitDy=0;fontStyle=1;fontSize=11;" parent="WIyWlLk6GJQsqaUBKTNV-1" source="Riw9BWggHdmtHfvTJYA6-10" edge="1">
          <mxGeometry relative="1" as="geometry">
            <mxPoint x="386" y="550" as="targetPoint" />
            <Array as="points">
              <mxPoint x="386" y="495" />
              <mxPoint x="386" y="550" />
            </Array>
          </mxGeometry>
        </mxCell>
        <mxCell id="Riw9BWggHdmtHfvTJYA6-10" value="Resized Satellite&amp;nbsp;&lt;br style=&quot;font-size: 11px;&quot;&gt;Image Bands" style="shape=parallelogram;html=1;strokeWidth=2;perimeter=parallelogramPerimeter;whiteSpace=wrap;rounded=1;arcSize=12;size=0.23;fillColor=#d5e8d4;strokeColor=#82b366;fontStyle=1;fontSize=11;" parent="WIyWlLk6GJQsqaUBKTNV-1" vertex="1">
          <mxGeometry x="277" y="465" width="100" height="60" as="geometry" />
        </mxCell>
        <mxCell id="Riw9BWggHdmtHfvTJYA6-14" style="edgeStyle=orthogonalEdgeStyle;rounded=0;orthogonalLoop=1;jettySize=auto;html=1;entryX=0.437;entryY=0.005;entryDx=0;entryDy=0;entryPerimeter=0;fontStyle=1;fontSize=11;" parent="WIyWlLk6GJQsqaUBKTNV-1" source="Riw9BWggHdmtHfvTJYA6-12" target="Riw9BWggHdmtHfvTJYA6-0" edge="1">
          <mxGeometry relative="1" as="geometry" />
        </mxCell>
        <mxCell id="Riw9BWggHdmtHfvTJYA6-12" value="Start" style="strokeWidth=2;html=1;shape=mxgraph.flowchart.start_2;whiteSpace=wrap;fillColor=#f8cecc;strokeColor=#b85450;fontStyle=1;fontSize=11;" parent="WIyWlLk6GJQsqaUBKTNV-1" vertex="1">
          <mxGeometry x="377" y="160" width="42.67" height="40" as="geometry" />
        </mxCell>
        <mxCell id="Riw9BWggHdmtHfvTJYA6-21" style="edgeStyle=orthogonalEdgeStyle;rounded=0;orthogonalLoop=1;jettySize=auto;html=1;entryX=0.5;entryY=0;entryDx=0;entryDy=0;fontStyle=1;fontSize=11;" parent="WIyWlLk6GJQsqaUBKTNV-1" source="Riw9BWggHdmtHfvTJYA6-16" target="Riw9BWggHdmtHfvTJYA6-20" edge="1">
          <mxGeometry relative="1" as="geometry" />
        </mxCell>
        <mxCell id="Riw9BWggHdmtHfvTJYA6-29" value="" style="edgeStyle=orthogonalEdgeStyle;rounded=0;orthogonalLoop=1;jettySize=auto;html=1;fontStyle=1;fontSize=11;" parent="WIyWlLk6GJQsqaUBKTNV-1" source="Riw9BWggHdmtHfvTJYA6-16" target="Riw9BWggHdmtHfvTJYA6-28" edge="1">
          <mxGeometry relative="1" as="geometry" />
        </mxCell>
        <mxCell id="7p6_Zu2bMeGWk3Idg1JW-2" value="Single Valuet" style="edgeLabel;html=1;align=center;verticalAlign=middle;resizable=0;points=[];" vertex="1" connectable="0" parent="Riw9BWggHdmtHfvTJYA6-29">
          <mxGeometry x="0.0424" y="2" relative="1" as="geometry">
            <mxPoint as="offset" />
          </mxGeometry>
        </mxCell>
        <mxCell id="Riw9BWggHdmtHfvTJYA6-16" value="Similarity Analysis (Spectral Angle Mapper)" style="rounded=1;whiteSpace=wrap;html=1;absoluteArcSize=1;arcSize=14;strokeWidth=2;fillColor=#dae8fc;strokeColor=#6c8ebf;fontStyle=1;fontSize=11;" parent="WIyWlLk6GJQsqaUBKTNV-1" vertex="1">
          <mxGeometry x="328" y="550" width="140" height="70" as="geometry" />
        </mxCell>
        <mxCell id="Riw9BWggHdmtHfvTJYA6-23" style="edgeStyle=orthogonalEdgeStyle;rounded=0;orthogonalLoop=1;jettySize=auto;html=1;fontStyle=1;fontSize=11;" parent="WIyWlLk6GJQsqaUBKTNV-1" source="Riw9BWggHdmtHfvTJYA6-20" edge="1">
          <mxGeometry relative="1" as="geometry">
            <mxPoint x="398" y="760" as="targetPoint" />
            <Array as="points">
              <mxPoint x="398" y="760" />
            </Array>
          </mxGeometry>
        </mxCell>
        <mxCell id="Riw9BWggHdmtHfvTJYA6-20" value="Spectral Unmixing (LSU/MTMF)" style="rounded=1;whiteSpace=wrap;html=1;absoluteArcSize=1;arcSize=14;strokeWidth=2;fillColor=#dae8fc;strokeColor=#6c8ebf;fontStyle=1;fontSize=11;" parent="WIyWlLk6GJQsqaUBKTNV-1" vertex="1">
          <mxGeometry x="328" y="650" width="140" height="70" as="geometry" />
        </mxCell>
        <mxCell id="Riw9BWggHdmtHfvTJYA6-27" style="edgeStyle=orthogonalEdgeStyle;rounded=0;orthogonalLoop=1;jettySize=auto;html=1;entryX=0.473;entryY=-0.017;entryDx=0;entryDy=0;entryPerimeter=0;exitX=0.556;exitY=1.002;exitDx=0;exitDy=0;exitPerimeter=0;fontStyle=1;fontSize=11;" parent="WIyWlLk6GJQsqaUBKTNV-1" source="Riw9BWggHdmtHfvTJYA6-22" target="Riw9BWggHdmtHfvTJYA6-26" edge="1">
          <mxGeometry relative="1" as="geometry" />
        </mxCell>
        <mxCell id="Riw9BWggHdmtHfvTJYA6-22" value="Generation of &lt;br style=&quot;font-size: 11px;&quot;&gt;Abundance Images" style="shape=parallelogram;html=1;strokeWidth=2;perimeter=parallelogramPerimeter;whiteSpace=wrap;rounded=1;arcSize=12;size=0.23;fillColor=#d5e8d4;strokeColor=#82b366;fontStyle=1;fontSize=11;" parent="WIyWlLk6GJQsqaUBKTNV-1" vertex="1">
          <mxGeometry x="298" y="760" width="180" height="60" as="geometry" />
        </mxCell>
        <mxCell id="Riw9BWggHdmtHfvTJYA6-26" value="Stop" style="strokeWidth=2;html=1;shape=mxgraph.flowchart.terminator;whiteSpace=wrap;fillColor=#f8cecc;strokeColor=#b85450;fontStyle=1;fontSize=11;" parent="WIyWlLk6GJQsqaUBKTNV-1" vertex="1">
          <mxGeometry x="349" y="860" width="98" height="40" as="geometry" />
        </mxCell>
        <mxCell id="Riw9BWggHdmtHfvTJYA6-36" style="edgeStyle=orthogonalEdgeStyle;rounded=0;orthogonalLoop=1;jettySize=auto;html=1;entryX=1;entryY=0.5;entryDx=0;entryDy=0;fontStyle=1;fontSize=11;" parent="WIyWlLk6GJQsqaUBKTNV-1" source="Riw9BWggHdmtHfvTJYA6-28" target="Riw9BWggHdmtHfvTJYA6-20" edge="1">
          <mxGeometry relative="1" as="geometry">
            <Array as="points">
              <mxPoint x="618" y="685" />
            </Array>
          </mxGeometry>
        </mxCell>
        <mxCell id="Riw9BWggHdmtHfvTJYA6-37" value="Yes" style="edgeLabel;html=1;align=center;verticalAlign=middle;resizable=0;points=[];fontStyle=1;fontSize=11;" parent="Riw9BWggHdmtHfvTJYA6-36" vertex="1" connectable="0">
          <mxGeometry x="-0.0688" y="3" relative="1" as="geometry">
            <mxPoint x="-34" y="-3" as="offset" />
          </mxGeometry>
        </mxCell>
        <mxCell id="Riw9BWggHdmtHfvTJYA6-28" value="Similar" style="rhombus;whiteSpace=wrap;html=1;rounded=1;arcSize=14;strokeWidth=2;fontStyle=1;fontSize=11;" parent="WIyWlLk6GJQsqaUBKTNV-1" vertex="1">
          <mxGeometry x="578" y="545" width="80" height="80" as="geometry" />
        </mxCell>
        <mxCell id="7p6_Zu2bMeGWk3Idg1JW-0" value="Spectral Library Builder and Resampling" style="shape=process;whiteSpace=wrap;html=1;backgroundOutline=1;fillColor=#dae8fc;strokeColor=#6c8ebf;strokeWidth=2;rounded=1;arcSize=12;fontStyle=1;fontSize=11;" vertex="1" parent="WIyWlLk6GJQsqaUBKTNV-1">
          <mxGeometry x="97" y="548.5" width="133" height="73" as="geometry" />
        </mxCell>
        <mxCell id="7p6_Zu2bMeGWk3Idg1JW-3" style="edgeStyle=orthogonalEdgeStyle;rounded=0;orthogonalLoop=1;jettySize=auto;html=1;fontStyle=1;fontSize=11;" edge="1" parent="WIyWlLk6GJQsqaUBKTNV-1">
          <mxGeometry relative="1" as="geometry">
            <mxPoint x="439" y="1305" as="sourcePoint" />
            <mxPoint x="439.0232558139536" y="1335.0186046511628" as="targetPoint" />
            <Array as="points">
              <mxPoint x="439" y="1295" />
              <mxPoint x="439" y="1295" />
            </Array>
          </mxGeometry>
        </mxCell>
        <mxCell id="7p6_Zu2bMeGWk3Idg1JW-4" value="AVIRIS-NG&amp;nbsp;&lt;br style=&quot;font-size: 11px;&quot;&gt;L2 reflectance data" style="shape=parallelogram;html=1;strokeWidth=2;perimeter=parallelogramPerimeter;whiteSpace=wrap;rounded=1;arcSize=12;size=0.23;fillColor=#fff2cc;strokeColor=#d6b656;fontStyle=1;fontSize=11;" vertex="1" parent="WIyWlLk6GJQsqaUBKTNV-1">
          <mxGeometry x="365" y="1234" width="170" height="60" as="geometry" />
        </mxCell>
        <mxCell id="7p6_Zu2bMeGWk3Idg1JW-6" value="" style="edgeStyle=orthogonalEdgeStyle;rounded=0;orthogonalLoop=1;jettySize=auto;html=1;fontStyle=1;fontSize=11;" edge="1" parent="WIyWlLk6GJQsqaUBKTNV-1" source="7p6_Zu2bMeGWk3Idg1JW-7" target="7p6_Zu2bMeGWk3Idg1JW-14">
          <mxGeometry relative="1" as="geometry">
            <mxPoint x="507" y="1465" as="targetPoint" />
          </mxGeometry>
        </mxCell>
        <mxCell id="7p6_Zu2bMeGWk3Idg1JW-7" value="Noisy bands filtering/removal" style="rounded=1;whiteSpace=wrap;html=1;absoluteArcSize=1;arcSize=14;strokeWidth=2;fillColor=#dae8fc;strokeColor=#6c8ebf;fontStyle=1;fontSize=11;" vertex="1" parent="WIyWlLk6GJQsqaUBKTNV-1">
          <mxGeometry x="369" y="1335" width="140" height="70" as="geometry" />
        </mxCell>
        <mxCell id="7p6_Zu2bMeGWk3Idg1JW-8" style="edgeStyle=orthogonalEdgeStyle;rounded=0;orthogonalLoop=1;jettySize=auto;html=1;entryX=0;entryY=0.5;entryDx=0;entryDy=0;exitX=1;exitY=0.5;exitDx=0;exitDy=0;fontStyle=1;fontSize=11;" edge="1" parent="WIyWlLk6GJQsqaUBKTNV-1" source="7p6_Zu2bMeGWk3Idg1JW-29" target="7p6_Zu2bMeGWk3Idg1JW-20">
          <mxGeometry relative="1" as="geometry" />
        </mxCell>
        <mxCell id="7p6_Zu2bMeGWk3Idg1JW-9" value="" style="edgeStyle=orthogonalEdgeStyle;rounded=0;orthogonalLoop=1;jettySize=auto;html=1;exitX=0.447;exitY=1;exitDx=0;exitDy=0;exitPerimeter=0;fontStyle=1;fontSize=11;" edge="1" parent="WIyWlLk6GJQsqaUBKTNV-1" source="7p6_Zu2bMeGWk3Idg1JW-10" target="7p6_Zu2bMeGWk3Idg1JW-29">
          <mxGeometry relative="1" as="geometry" />
        </mxCell>
        <mxCell id="7p6_Zu2bMeGWk3Idg1JW-10" value="Buxar Ganga Water&amp;nbsp;&lt;br style=&quot;font-size: 11px;&quot;&gt;Spectro Radiometer &lt;br style=&quot;font-size: 11px;&quot;&gt;data" style="shape=parallelogram;html=1;strokeWidth=2;perimeter=parallelogramPerimeter;whiteSpace=wrap;rounded=1;arcSize=12;size=0.23;fillColor=#fff2cc;strokeColor=#d6b656;align=center;fontStyle=1;fontSize=11;" vertex="1" parent="WIyWlLk6GJQsqaUBKTNV-1">
          <mxGeometry x="128" y="1440" width="171" height="67" as="geometry" />
        </mxCell>
        <mxCell id="7p6_Zu2bMeGWk3Idg1JW-30" value="" style="edgeStyle=orthogonalEdgeStyle;rounded=0;orthogonalLoop=1;jettySize=auto;html=1;exitX=0.492;exitY=1.003;exitDx=0;exitDy=0;exitPerimeter=0;" edge="1" parent="WIyWlLk6GJQsqaUBKTNV-1" source="7p6_Zu2bMeGWk3Idg1JW-14" target="7p6_Zu2bMeGWk3Idg1JW-20">
          <mxGeometry relative="1" as="geometry" />
        </mxCell>
        <mxCell id="7p6_Zu2bMeGWk3Idg1JW-14" value="Resized Satellite&amp;nbsp;&lt;br style=&quot;font-size: 11px;&quot;&gt;Image Bands" style="shape=parallelogram;html=1;strokeWidth=2;perimeter=parallelogramPerimeter;whiteSpace=wrap;rounded=1;arcSize=12;size=0.23;fillColor=#d5e8d4;strokeColor=#82b366;fontStyle=1;fontSize=11;" vertex="1" parent="WIyWlLk6GJQsqaUBKTNV-1">
          <mxGeometry x="374.33" y="1440" width="130.67" height="70" as="geometry" />
        </mxCell>
        <mxCell id="7p6_Zu2bMeGWk3Idg1JW-15" style="edgeStyle=orthogonalEdgeStyle;rounded=0;orthogonalLoop=1;jettySize=auto;html=1;entryX=0.437;entryY=0.005;entryDx=0;entryDy=0;entryPerimeter=0;fontStyle=1;fontSize=11;" edge="1" parent="WIyWlLk6GJQsqaUBKTNV-1" source="7p6_Zu2bMeGWk3Idg1JW-16" target="7p6_Zu2bMeGWk3Idg1JW-4">
          <mxGeometry relative="1" as="geometry" />
        </mxCell>
        <mxCell id="7p6_Zu2bMeGWk3Idg1JW-16" value="Start" style="strokeWidth=2;html=1;shape=mxgraph.flowchart.start_2;whiteSpace=wrap;fillColor=#f8cecc;strokeColor=#b85450;fontStyle=1;fontSize=11;" vertex="1" parent="WIyWlLk6GJQsqaUBKTNV-1">
          <mxGeometry x="418" y="1160" width="42.67" height="40" as="geometry" />
        </mxCell>
        <mxCell id="7p6_Zu2bMeGWk3Idg1JW-18" value="" style="edgeStyle=orthogonalEdgeStyle;rounded=0;orthogonalLoop=1;jettySize=auto;html=1;fontStyle=1;fontSize=11;exitX=0.495;exitY=1.024;exitDx=0;exitDy=0;exitPerimeter=0;" edge="1" parent="WIyWlLk6GJQsqaUBKTNV-1" source="7p6_Zu2bMeGWk3Idg1JW-20">
          <mxGeometry relative="1" as="geometry">
            <mxPoint x="439" y="1650" as="sourcePoint" />
            <mxPoint x="309" y="1660" as="targetPoint" />
            <Array as="points">
              <mxPoint x="438" y="1640" />
              <mxPoint x="309" y="1640" />
            </Array>
          </mxGeometry>
        </mxCell>
        <mxCell id="7p6_Zu2bMeGWk3Idg1JW-19" value="Single Value" style="edgeLabel;html=1;align=center;verticalAlign=middle;resizable=0;points=[];" vertex="1" connectable="0" parent="7p6_Zu2bMeGWk3Idg1JW-18">
          <mxGeometry x="0.0424" y="2" relative="1" as="geometry">
            <mxPoint x="4" y="-2" as="offset" />
          </mxGeometry>
        </mxCell>
        <mxCell id="7p6_Zu2bMeGWk3Idg1JW-20" value="Similarity Analysis (Spectral Angle Mapper)" style="rounded=1;whiteSpace=wrap;html=1;absoluteArcSize=1;arcSize=14;strokeWidth=2;fillColor=#dae8fc;strokeColor=#6c8ebf;fontStyle=1;fontSize=11;" vertex="1" parent="WIyWlLk6GJQsqaUBKTNV-1">
          <mxGeometry x="369" y="1550" width="140" height="70" as="geometry" />
        </mxCell>
        <mxCell id="7p6_Zu2bMeGWk3Idg1JW-21" style="edgeStyle=orthogonalEdgeStyle;rounded=0;orthogonalLoop=1;jettySize=auto;html=1;fontStyle=1;fontSize=11;" edge="1" parent="WIyWlLk6GJQsqaUBKTNV-1" source="7p6_Zu2bMeGWk3Idg1JW-22">
          <mxGeometry relative="1" as="geometry">
            <mxPoint x="439" y="2007" as="targetPoint" />
            <Array as="points">
              <mxPoint x="439" y="2007" />
            </Array>
          </mxGeometry>
        </mxCell>
        <mxCell id="7p6_Zu2bMeGWk3Idg1JW-22" value="Spectral Unmixing (LSU/MTMF)" style="rounded=1;whiteSpace=wrap;html=1;absoluteArcSize=1;arcSize=14;strokeWidth=2;fillColor=#dae8fc;strokeColor=#6c8ebf;fontStyle=1;fontSize=11;" vertex="1" parent="WIyWlLk6GJQsqaUBKTNV-1">
          <mxGeometry x="369.33" y="1918" width="140" height="70" as="geometry" />
        </mxCell>
        <mxCell id="7p6_Zu2bMeGWk3Idg1JW-23" style="edgeStyle=orthogonalEdgeStyle;rounded=0;orthogonalLoop=1;jettySize=auto;html=1;entryX=0.473;entryY=-0.017;entryDx=0;entryDy=0;entryPerimeter=0;exitX=0.556;exitY=1.002;exitDx=0;exitDy=0;exitPerimeter=0;fontStyle=1;fontSize=11;" edge="1" parent="WIyWlLk6GJQsqaUBKTNV-1" target="7p6_Zu2bMeGWk3Idg1JW-25">
          <mxGeometry relative="1" as="geometry">
            <mxPoint x="439.0799999999999" y="2067.12" as="sourcePoint" />
          </mxGeometry>
        </mxCell>
        <mxCell id="7p6_Zu2bMeGWk3Idg1JW-24" value="Generation of &lt;br style=&quot;font-size: 11px;&quot;&gt;Abundance Images" style="shape=parallelogram;html=1;strokeWidth=2;perimeter=parallelogramPerimeter;whiteSpace=wrap;rounded=1;arcSize=12;size=0.23;fillColor=#d5e8d4;strokeColor=#82b366;fontStyle=1;fontSize=11;" vertex="1" parent="WIyWlLk6GJQsqaUBKTNV-1">
          <mxGeometry x="339" y="2008" width="180" height="60" as="geometry" />
        </mxCell>
        <mxCell id="7p6_Zu2bMeGWk3Idg1JW-25" value="Stop" style="strokeWidth=2;html=1;shape=mxgraph.flowchart.terminator;whiteSpace=wrap;fillColor=#f8cecc;strokeColor=#b85450;fontStyle=1;fontSize=11;" vertex="1" parent="WIyWlLk6GJQsqaUBKTNV-1">
          <mxGeometry x="390" y="2107" width="98" height="40" as="geometry" />
        </mxCell>
        <mxCell id="7p6_Zu2bMeGWk3Idg1JW-36" value="" style="edgeStyle=orthogonalEdgeStyle;rounded=0;orthogonalLoop=1;jettySize=auto;html=1;" edge="1" parent="WIyWlLk6GJQsqaUBKTNV-1" source="7p6_Zu2bMeGWk3Idg1JW-28">
          <mxGeometry relative="1" as="geometry">
            <mxPoint x="308.83000000000015" y="1888" as="targetPoint" />
          </mxGeometry>
        </mxCell>
        <mxCell id="7p6_Zu2bMeGWk3Idg1JW-28" value="&lt;font style=&quot;font-size: 9px;&quot;&gt;Testing &lt;br&gt;classification &lt;br&gt;results @ multiple&amp;nbsp;&lt;br&gt;max angles&amp;nbsp;&lt;/font&gt;" style="rhombus;whiteSpace=wrap;html=1;rounded=1;arcSize=14;strokeWidth=2;fontStyle=1;fontSize=11;" vertex="1" parent="WIyWlLk6GJQsqaUBKTNV-1">
          <mxGeometry x="244.33" y="1658" width="129" height="120" as="geometry" />
        </mxCell>
        <mxCell id="7p6_Zu2bMeGWk3Idg1JW-29" value="Spectral Library Builder and Resampling" style="shape=process;whiteSpace=wrap;html=1;backgroundOutline=1;fillColor=#dae8fc;strokeColor=#6c8ebf;strokeWidth=2;rounded=1;arcSize=12;fontStyle=1;fontSize=11;" vertex="1" parent="WIyWlLk6GJQsqaUBKTNV-1">
          <mxGeometry x="138" y="1548.5" width="133" height="73" as="geometry" />
        </mxCell>
        <mxCell id="7p6_Zu2bMeGWk3Idg1JW-32" value="" style="edgeStyle=orthogonalEdgeStyle;rounded=0;orthogonalLoop=1;jettySize=auto;html=1;fontStyle=1;fontSize=11;" edge="1" parent="WIyWlLk6GJQsqaUBKTNV-1">
          <mxGeometry relative="1" as="geometry">
            <mxPoint x="413" y="1640" as="sourcePoint" />
            <mxPoint x="573" y="1660" as="targetPoint" />
            <Array as="points">
              <mxPoint x="573" y="1640" />
            </Array>
          </mxGeometry>
        </mxCell>
        <mxCell id="7p6_Zu2bMeGWk3Idg1JW-33" value="Multiple Value" style="edgeLabel;html=1;align=center;verticalAlign=middle;resizable=0;points=[];" vertex="1" connectable="0" parent="7p6_Zu2bMeGWk3Idg1JW-32">
          <mxGeometry x="0.0424" y="2" relative="1" as="geometry">
            <mxPoint x="-12" y="2" as="offset" />
          </mxGeometry>
        </mxCell>
        <mxCell id="7p6_Zu2bMeGWk3Idg1JW-34" value="&lt;font style=&quot;font-size: 9px;&quot;&gt;Testing &lt;br&gt;classification &lt;br&gt;results @&lt;br&gt;multiple &lt;br&gt;max angles&amp;nbsp;&lt;/font&gt;" style="rhombus;whiteSpace=wrap;html=1;rounded=1;arcSize=14;strokeWidth=2;fontStyle=1;fontSize=11;" vertex="1" parent="WIyWlLk6GJQsqaUBKTNV-1">
          <mxGeometry x="513" y="1658" width="121" height="110" as="geometry" />
        </mxCell>
      </root>
    </mxGraphModel>
  </diagram>
</mxfile>
